<svg width="25" height="25" viewBox="0 0 25 25" fill="none" xmlns="http://www.w3.org/2000/svg">
<path d="M1 11.4967V11.976C0.999915 13.9578 1.53407 15.903 2.54624 17.6068C3.55842 19.3107 5.01118 20.7101 6.75164 21.6579V23H16.3377V21.6579C18.0782 20.7101 19.5309 19.3107 20.5431 17.6068C21.5553 15.903 22.0894 13.9578 22.0893 11.976V11.4967H1Z" stroke="#5051F9" stroke-miterlimit="10"/>
<path d="M18.9318 7.12311L22.3109 2.5218" stroke="#5051F9" stroke-miterlimit="10"/>
<path d="M17.7037 6.28432L18.8361 1" stroke="#5051F9" stroke-miterlimit="10"/>
<path d="M2.55771 11.4967C2.29132 10.2011 2.46116 8.85381 3.04073 7.66486C3.62031 6.47591 4.57704 5.51216 5.76173 4.92392C6.94642 4.33568 8.29247 4.15601 9.58997 4.41293C10.8875 4.66985 12.0635 5.34891 12.9346 6.34422" stroke="#5051F9" stroke-miterlimit="10"/>
<path d="M4.53481 11.4967C4.26298 10.6143 4.29894 9.66577 4.63681 8.80649C4.97468 7.9472 5.59442 7.22817 6.39446 6.76722C7.19449 6.30628 8.12738 6.13076 9.04023 6.26944C9.95308 6.40812 10.7918 6.85277 11.4188 7.53051" stroke="#5051F9" stroke-miterlimit="10"/>
<path d="M6.63783 11.4967C6.47175 11.2509 6.35816 10.9735 6.30416 10.6818C6.25016 10.3901 6.25692 10.0904 6.324 9.80144C6.39109 9.51247 6.51706 9.24045 6.69405 9.00238C6.87104 8.76431 7.09524 8.56531 7.35262 8.41782C7.61001 8.27032 7.89506 8.17751 8.18994 8.14519C8.48483 8.11286 8.78321 8.14171 9.06644 8.22993C9.34967 8.31815 9.61165 8.46386 9.83602 8.65793C10.0604 8.852 10.2423 9.09026 10.3704 9.35783" stroke="#5051F9" stroke-miterlimit="10"/>
<path d="M16.7271 11.4967C16.8062 11.2795 16.8318 11.0464 16.8017 10.8172C16.7716 10.5879 16.6866 10.3693 16.554 10.1799C16.4214 9.99053 16.2451 9.83588 16.0401 9.72911C15.835 9.62234 15.6072 9.56659 15.376 9.56659C15.1448 9.56659 14.917 9.62234 14.712 9.72911C14.5069 9.83588 14.3306 9.99053 14.198 10.1799C14.0654 10.3693 13.9805 10.5879 13.9504 10.8172C13.9202 11.0464 13.9458 11.2795 14.025 11.4967" stroke="#5051F9" stroke-miterlimit="10"/>
<path d="M18.6983 11.4967C18.7718 11.0186 18.7411 10.5303 18.6082 10.0652C18.4753 9.60016 18.2434 9.16931 17.9284 8.80222C17.6135 8.43513 17.2228 8.14049 16.7833 7.93849C16.3438 7.73648 15.8659 7.6319 15.3822 7.6319C14.8985 7.6319 14.4205 7.73648 13.981 7.93849C13.5415 8.14049 13.1509 8.43513 12.8359 8.80222C12.5209 9.16931 12.289 9.60016 12.1561 10.0652C12.0233 10.5303 11.9925 11.0186 12.066 11.4967" stroke="#5051F9" stroke-miterlimit="10"/>
<path d="M20.6274 11.4967C20.6394 11.3409 20.6514 11.1792 20.6514 11.0174C20.6514 9.6191 20.0959 8.27806 19.1071 7.2893C18.1184 6.30055 16.7773 5.74507 15.379 5.74507C13.9807 5.74507 12.6397 6.30055 11.6509 7.2893C10.6622 8.27806 10.1067 9.6191 10.1067 11.0174C10.1067 11.1792 10.1187 11.3409 10.1307 11.4967" stroke="#5051F9" stroke-miterlimit="10"/>
</svg>
